<svg xmlns="http://www.w3.org/2000/svg" xmlns:xlink="http://www.w3.org/1999/xlink" width="500" viewBox="0 0 375 374.999991" height="500" preserveAspectRatio="xMidYMid meet"><defs><clipPath id="74e1e1cf8e"><path d="M 23.4375 282.585938 L 353.4375 282.585938 L 353.4375 374.945312 L 23.4375 374.945312 Z M 23.4375 282.585938 " clip-rule="nonzero"></path></clipPath></defs><rect x="-37.5" width="450" fill="#ffffff" y="-37.499999" height="449.999989" fill-opacity="1"></rect><rect x="-37.5" width="450" fill="#ffffff" y="-37.499999" height="449.999989" fill-opacity="1"></rect><g clip-path="url(#74e1e1cf8e)"><path fill="#55b9ea" d="M 60.589844 324.136719 L 72.757812 298.386719 C 73.851562 296.078125 76.171875 294.609375 78.722656 294.609375 L 297.484375 294.609375 C 300.027344 294.609375 302.339844 296.070312 303.4375 298.363281 L 315.742188 324.121094 C 317.222656 327.214844 314.964844 330.792969 311.535156 330.792969 L 64.804688 330.792969 C 61.382812 330.792969 59.125 327.230469 60.589844 324.136719 Z M 215.691406 364.777344 L 161.183594 364.777344 C 158.894531 364.777344 157.199219 362.652344 157.710938 360.417969 L 161.890625 342.164062 C 162.261719 340.546875 163.703125 339.398438 165.367188 339.398438 L 211.511719 339.398438 C 213.171875 339.398438 214.613281 340.546875 214.980469 342.164062 L 219.164062 360.417969 C 219.675781 362.652344 217.980469 364.777344 215.691406 364.777344 Z M 352.535156 363.277344 L 313.171875 286.953125 C 311.796875 284.289062 309.054688 282.617188 306.058594 282.617188 L 70.816406 282.617188 C 67.820312 282.617188 65.078125 284.289062 63.703125 286.953125 L 24.339844 363.277344 C 21.59375 368.601562 25.460938 374.945312 31.453125 374.945312 L 345.421875 374.945312 C 351.414062 374.945312 355.28125 368.601562 352.535156 363.277344 " fill-opacity="1" fill-rule="nonzero"></path></g><path fill="#55b9ea" d="M 82.675781 125.640625 C 80.234375 125.640625 78.253906 127.621094 78.253906 130.0625 L 78.253906 253.175781 C 78.253906 255.617188 80.234375 257.59375 82.675781 257.59375 L 294.199219 257.59375 C 296.640625 257.59375 298.621094 255.617188 298.621094 253.175781 L 298.621094 130.0625 C 298.621094 127.621094 296.640625 125.640625 294.199219 125.640625 Z M 297.703125 270.105469 L 79.171875 270.105469 C 71.765625 270.105469 65.742188 264.082031 65.742188 256.675781 L 65.742188 126.558594 C 65.742188 119.15625 71.765625 113.128906 79.171875 113.128906 L 297.703125 113.128906 C 305.109375 113.128906 311.132812 119.15625 311.132812 126.558594 L 311.132812 256.675781 C 311.132812 264.082031 305.109375 270.105469 297.703125 270.105469 " fill-opacity="1" fill-rule="nonzero"></path><path fill="#55b9ea" d="M 243.109375 73.167969 C 241.566406 73.167969 240.023438 72.597656 238.8125 71.457031 C 238.574219 71.234375 214.761719 49.058594 188.710938 49.058594 C 162.460938 49.058594 138.203125 70.734375 137.960938 70.953125 C 135.398438 73.273438 131.445312 73.074219 129.125 70.511719 C 126.808594 67.953125 127.003906 63.996094 129.566406 61.679688 C 130.699219 60.652344 157.691406 36.546875 188.710938 36.546875 C 219.808594 36.546875 246.300781 61.316406 247.414062 62.371094 C 249.921875 64.746094 250.027344 68.707031 247.648438 71.214844 C 246.421875 72.511719 244.765625 73.167969 243.109375 73.167969 " fill-opacity="1" fill-rule="nonzero"></path><path fill="#55b9ea" d="M 225.457031 100.621094 C 223.914062 100.621094 222.371094 100.050781 221.160156 98.910156 C 220.957031 98.71875 205.402344 84.292969 188.621094 84.292969 C 171.726562 84.292969 155.765625 98.460938 155.605469 98.605469 C 153.039062 100.910156 149.085938 100.707031 146.777344 98.144531 C 144.464844 95.582031 144.660156 91.636719 147.21875 89.320312 C 148.011719 88.605469 166.847656 71.78125 188.621094 71.78125 C 210.476562 71.78125 228.984375 89.085938 229.757812 89.824219 C 232.265625 92.199219 232.375 96.160156 229.996094 98.664062 C 228.765625 99.964844 227.113281 100.621094 225.457031 100.621094 " fill-opacity="1" fill-rule="nonzero"></path><path fill="#55b9ea" d="M 266.460938 46.972656 C 264.917969 46.972656 263.371094 46.402344 262.160156 45.257812 C 261.613281 44.742188 226.996094 12.566406 188.824219 12.566406 C 150.34375 12.566406 114.960938 44.183594 114.609375 44.503906 C 112.046875 46.824219 108.089844 46.625 105.773438 44.0625 C 103.453125 41.5 103.652344 37.546875 106.214844 35.226562 C 107.800781 33.789062 145.574219 0.0546875 188.824219 0.0546875 C 232.15625 0.0546875 269.210938 34.703125 270.769531 36.175781 C 273.273438 38.554688 273.382812 42.511719 271.003906 45.019531 C 269.773438 46.316406 268.121094 46.972656 266.460938 46.972656 " fill-opacity="1" fill-rule="nonzero"></path><path fill="#55b9ea" d="M 115.125 164.070312 L 122.035156 164.070312 C 123.582031 164.070312 124.835938 165.320312 124.835938 166.867188 L 124.835938 205.90625 C 124.835938 207.449219 126.085938 208.703125 127.632812 208.703125 L 143.945312 208.703125 C 145.492188 208.703125 146.742188 209.957031 146.742188 211.503906 L 146.742188 216.371094 C 146.742188 217.914062 145.492188 219.167969 143.945312 219.167969 L 115.125 219.167969 C 113.578125 219.167969 112.328125 217.914062 112.328125 216.371094 L 112.328125 166.867188 C 112.328125 165.320312 113.578125 164.070312 115.125 164.070312 " fill-opacity="1" fill-rule="nonzero"></path><path fill="#55b9ea" d="M 166.609375 166.867188 L 166.609375 216.371094 C 166.609375 217.914062 165.355469 219.167969 163.8125 219.167969 L 156.898438 219.167969 C 155.355469 219.167969 154.101562 217.914062 154.101562 216.371094 L 154.101562 166.867188 C 154.101562 165.320312 155.355469 164.070312 156.898438 164.070312 L 163.8125 164.070312 C 165.355469 164.070312 166.609375 165.320312 166.609375 166.867188 " fill-opacity="1" fill-rule="nonzero"></path><path fill="#55b9ea" d="M 189.777344 217.226562 L 173.910156 167.71875 C 173.332031 165.914062 174.679688 164.070312 176.574219 164.070312 L 184.289062 164.070312 C 185.535156 164.070312 186.632812 164.894531 186.976562 166.09375 L 193.097656 187.367188 C 194.976562 193.90625 196.695312 200.199219 198.003906 207.070312 L 198.246094 207.070312 C 199.636719 200.445312 201.355469 193.90625 203.234375 187.613281 L 209.667969 166.066406 C 210.023438 164.878906 211.113281 164.070312 212.347656 164.070312 L 219.613281 164.070312 C 221.527344 164.070312 222.875 165.945312 222.265625 167.757812 L 205.59375 217.261719 C 205.207031 218.402344 204.140625 219.167969 202.941406 219.167969 L 192.441406 219.167969 C 191.222656 219.167969 190.148438 218.382812 189.777344 217.226562 " fill-opacity="1" fill-rule="nonzero"></path><path fill="#55b9ea" d="M 259.378906 195.867188 L 244.699219 195.867188 C 243.15625 195.867188 241.902344 197.121094 241.902344 198.667969 L 241.902344 206.152344 C 241.902344 207.695312 243.15625 208.949219 244.699219 208.949219 L 261.75 208.949219 C 263.296875 208.949219 264.546875 210.199219 264.546875 211.746094 L 264.546875 216.371094 C 264.546875 217.914062 263.296875 219.167969 261.75 219.167969 L 232.191406 219.167969 C 230.648438 219.167969 229.394531 217.914062 229.394531 216.371094 L 229.394531 166.867188 C 229.394531 165.320312 230.648438 164.070312 232.191406 164.070312 L 260.605469 164.070312 C 262.148438 164.070312 263.402344 165.320312 263.402344 166.867188 L 263.402344 171.488281 C 263.402344 173.035156 262.148438 174.285156 260.605469 174.285156 L 244.699219 174.285156 C 243.15625 174.285156 241.902344 175.539062 241.902344 177.085938 L 241.902344 182.933594 C 241.902344 184.476562 243.15625 185.730469 244.699219 185.730469 L 259.378906 185.730469 C 260.925781 185.730469 262.175781 186.984375 262.175781 188.53125 L 262.175781 193.070312 C 262.175781 194.617188 260.925781 195.867188 259.378906 195.867188 " fill-opacity="1" fill-rule="nonzero"></path></svg>